<svg width="173" height="23" viewBox="0 0 173 23" fill="none" xmlns="http://www.w3.org/2000/svg">
<path d="M7.72086 22C7.50086 22 7.32086 21.93 7.18086 21.79C7.04086 21.65 6.97086 21.47 6.97086 21.25V5.17H1.51086C1.31086 5.17 1.14086 5.1 1.00086 4.96C0.860859 4.82 0.790859 4.65 0.790859 4.45V1.75C0.790859 1.53 0.860859 1.35 1.00086 1.21C1.14086 1.07 1.31086 0.999999 1.51086 0.999999H17.2309C17.4509 0.999999 17.6309 1.07 17.7709 1.21C17.9109 1.35 17.9809 1.53 17.9809 1.75V4.45C17.9809 4.65 17.9109 4.82 17.7709 4.96C17.6309 5.1 17.4509 5.17 17.2309 5.17H11.8009V21.25C11.8009 21.47 11.7309 21.65 11.5909 21.79C11.4509 21.93 11.2709 22 11.0509 22H7.72086ZM19.4694 22C19.2694 22 19.0994 21.93 18.9594 21.79C18.8194 21.65 18.7494 21.47 18.7494 21.25V7.15C18.7494 6.95 18.8194 6.78 18.9594 6.64C19.0994 6.48 19.2694 6.4 19.4694 6.4H22.4094C22.6094 6.4 22.7794 6.48 22.9194 6.64C23.0794 6.78 23.1594 6.95 23.1594 7.15V8.35C23.6594 7.73 24.2694 7.25 24.9894 6.91C25.7294 6.57 26.5794 6.4 27.5394 6.4H28.8294C29.0294 6.4 29.1994 6.47 29.3394 6.61C29.4794 6.75 29.5494 6.93 29.5494 7.15V9.73C29.5494 9.95 29.4794 10.13 29.3394 10.27C29.1994 10.41 29.0294 10.48 28.8294 10.48H26.1894C25.3094 10.48 24.6194 10.73 24.1194 11.23C23.6194 11.71 23.3694 12.4 23.3694 13.3V21.25C23.3694 21.47 23.2994 21.65 23.1594 21.79C23.0194 21.93 22.8394 22 22.6194 22H19.4694ZM36.1128 22.3C35.0528 22.3 34.1028 22.1 33.2628 21.7C32.4228 21.28 31.7528 20.72 31.2528 20.02C30.7528 19.32 30.5028 18.54 30.5028 17.68C30.5028 16.26 31.0728 15.14 32.2128 14.32C33.3728 13.5 34.8928 12.94 36.7728 12.64L40.7028 12.07V11.53C40.7028 10.75 40.5228 10.15 40.1628 9.73C39.8028 9.31 39.1728 9.1 38.2728 9.1C37.6128 9.1 37.0828 9.23 36.6828 9.49C36.2828 9.75 35.9728 10.09 35.7528 10.51C35.5928 10.77 35.3628 10.9 35.0628 10.9H32.2128C31.9928 10.9 31.8228 10.84 31.7028 10.72C31.5828 10.58 31.5328 10.42 31.5528 10.24C31.5528 9.9 31.6828 9.5 31.9428 9.04C32.2028 8.58 32.6028 8.13 33.1428 7.69C33.6828 7.23 34.3728 6.85 35.2128 6.55C36.0528 6.25 37.0828 6.1 38.3028 6.1C39.5628 6.1 40.6428 6.25 41.5428 6.55C42.4428 6.85 43.1628 7.27 43.7028 7.81C44.2428 8.35 44.6428 8.98 44.9028 9.7C45.1628 10.4 45.2928 11.16 45.2928 11.98V21.25C45.2928 21.47 45.2228 21.65 45.0828 21.79C44.9428 21.93 44.7628 22 44.5428 22H41.6028C41.4028 22 41.2328 21.93 41.0928 21.79C40.9528 21.65 40.8828 21.47 40.8828 21.25V20.14C40.6228 20.52 40.2728 20.88 39.8328 21.22C39.3928 21.54 38.8628 21.8 38.2428 22C37.6428 22.2 36.9328 22.3 36.1128 22.3ZM37.3128 19.18C37.9728 19.18 38.5628 19.04 39.0828 18.76C39.6028 18.48 40.0128 18.05 40.3128 17.47C40.6128 16.89 40.7628 16.16 40.7628 15.28V14.77L37.9728 15.22C36.8928 15.4 36.1028 15.67 35.6028 16.03C35.1028 16.39 34.8528 16.83 34.8528 17.35C34.8528 17.73 34.9628 18.06 35.1828 18.34C35.4228 18.62 35.7328 18.83 36.1128 18.97C36.4928 19.11 36.8928 19.18 37.3128 19.18ZM49.6452 22C49.4452 22 49.2752 21.93 49.1352 21.79C48.9952 21.65 48.9252 21.47 48.9252 21.25V7.15C48.9252 6.93 48.9952 6.75 49.1352 6.61C49.2752 6.47 49.4452 6.4 49.6452 6.4H52.5852C52.8052 6.4 52.9852 6.47 53.1252 6.61C53.2652 6.75 53.3352 6.93 53.3352 7.15V8.32C53.8552 7.68 54.5252 7.15 55.3452 6.73C56.1652 6.31 57.1652 6.1 58.3452 6.1C59.5252 6.1 60.5552 6.37 61.4352 6.91C62.3352 7.43 63.0352 8.2 63.5352 9.22C64.0552 10.22 64.3152 11.44 64.3152 12.88V21.25C64.3152 21.47 64.2352 21.65 64.0752 21.79C63.9352 21.93 63.7652 22 63.5652 22H60.3852C60.1652 22 59.9852 21.93 59.8452 21.79C59.7052 21.65 59.6352 21.47 59.6352 21.25V13.06C59.6352 12 59.3752 11.18 58.8552 10.6C58.3552 10 57.6152 9.7 56.6352 9.7C55.6952 9.7 54.9452 10 54.3852 10.6C53.8252 11.18 53.5452 12 53.5452 13.06V21.25C53.5452 21.47 53.4752 21.65 53.3352 21.79C53.1952 21.93 53.0252 22 52.8252 22H49.6452ZM74.0595 22.3C72.8195 22.3 71.7495 22.16 70.8495 21.88C69.9695 21.58 69.2495 21.22 68.6895 20.8C68.1495 20.38 67.7395 19.96 67.4595 19.54C67.1995 19.1 67.0595 18.73 67.0395 18.43C67.0195 18.21 67.0895 18.03 67.2495 17.89C67.4095 17.75 67.5695 17.68 67.7295 17.68H70.6395C70.6995 17.68 70.7595 17.69 70.8195 17.71C70.8795 17.73 70.9395 17.78 70.9995 17.86C71.2595 18.04 71.5295 18.25 71.8095 18.49C72.0895 18.71 72.4095 18.9 72.7695 19.06C73.1495 19.22 73.6195 19.3 74.1795 19.3C74.8395 19.3 75.3995 19.17 75.8595 18.91C76.3195 18.63 76.5495 18.24 76.5495 17.74C76.5495 17.38 76.4395 17.08 76.2195 16.84C76.0195 16.6 75.6295 16.38 75.0495 16.18C74.4695 15.98 73.6095 15.76 72.4695 15.52C71.3895 15.28 70.4695 14.96 69.7095 14.56C68.9495 14.16 68.3795 13.66 67.9995 13.06C67.6195 12.44 67.4295 11.7 67.4295 10.84C67.4295 10.06 67.6695 9.31 68.1495 8.59C68.6495 7.87 69.3795 7.28 70.3395 6.82C71.2995 6.34 72.4995 6.1 73.9395 6.1C75.0395 6.1 75.9995 6.24 76.8195 6.52C77.6595 6.78 78.3595 7.12 78.9195 7.54C79.4795 7.94 79.8995 8.36 80.1795 8.8C80.4795 9.22 80.6395 9.59 80.6595 9.91C80.6795 10.11 80.6195 10.28 80.4795 10.42C80.3395 10.56 80.1795 10.63 79.9995 10.63H77.3295C77.2295 10.63 77.1395 10.62 77.0595 10.6C76.9795 10.56 76.9095 10.51 76.8495 10.45C76.6095 10.29 76.3595 10.11 76.0995 9.91C75.8595 9.69 75.5695 9.5 75.2295 9.34C74.8895 9.18 74.4495 9.1 73.9095 9.1C73.2495 9.1 72.7395 9.25 72.3795 9.55C72.0395 9.83 71.8695 10.19 71.8695 10.63C71.8695 10.91 71.9595 11.17 72.1395 11.41C72.3195 11.65 72.6895 11.87 73.2495 12.07C73.8095 12.27 74.6595 12.48 75.7995 12.7C77.1595 12.94 78.2395 13.3 79.0395 13.78C79.8395 14.26 80.4095 14.82 80.7495 15.46C81.1095 16.08 81.2895 16.75 81.2895 17.47C81.2895 18.41 81.0095 19.25 80.4495 19.99C79.8895 20.71 79.0695 21.28 77.9895 21.7C76.9295 22.1 75.6195 22.3 74.0595 22.3ZM84.8893 22C84.6893 22 84.5193 21.93 84.3793 21.79C84.2393 21.65 84.1693 21.47 84.1693 21.25V7.15C84.1693 6.93 84.2393 6.75 84.3793 6.61C84.5193 6.47 84.6893 6.4 84.8893 6.4H87.8893C88.1093 6.4 88.2893 6.47 88.4293 6.61C88.5693 6.75 88.6393 6.93 88.6393 7.15V21.25C88.6393 21.47 88.5693 21.65 88.4293 21.79C88.2893 21.93 88.1093 22 87.8893 22H84.8893ZM84.7993 4C84.5993 4 84.4293 3.93 84.2893 3.79C84.1493 3.65 84.0793 3.47 84.0793 3.25V0.849999C84.0793 0.629999 84.1493 0.449999 84.2893 0.309999C84.4293 0.149999 84.5993 0.0699998 84.7993 0.0699998H87.9493C88.1693 0.0699998 88.3493 0.149999 88.4893 0.309999C88.6493 0.449999 88.7293 0.629999 88.7293 0.849999V3.25C88.7293 3.47 88.6493 3.65 88.4893 3.79C88.3493 3.93 88.1693 4 87.9493 4H84.7993ZM99.9017 22C98.6617 22 97.6017 21.8 96.7217 21.4C95.8417 20.98 95.1717 20.34 94.7117 19.48C94.2717 18.62 94.0517 17.54 94.0517 16.24V9.94H91.7117C91.4917 9.94 91.3117 9.87 91.1717 9.73C91.0317 9.59 90.9617 9.41 90.9617 9.19V7.15C90.9617 6.93 91.0317 6.75 91.1717 6.61C91.3117 6.47 91.4917 6.4 91.7117 6.4H94.0517V1.45C94.0517 1.23 94.1217 1.05 94.2617 0.91C94.4217 0.769999 94.6017 0.699999 94.8017 0.699999H97.7417C97.9617 0.699999 98.1417 0.769999 98.2817 0.91C98.4217 1.05 98.4917 1.23 98.4917 1.45V6.4H102.242C102.442 6.4 102.612 6.47 102.752 6.61C102.892 6.75 102.962 6.93 102.962 7.15V9.19C102.962 9.41 102.892 9.59 102.752 9.73C102.612 9.87 102.442 9.94 102.242 9.94H98.4917V15.88C98.4917 16.64 98.6217 17.24 98.8817 17.68C99.1617 18.1 99.6417 18.31 100.322 18.31H102.512C102.712 18.31 102.882 18.38 103.022 18.52C103.162 18.66 103.232 18.83 103.232 19.03V21.25C103.232 21.47 103.162 21.65 103.022 21.79C102.882 21.93 102.712 22 102.512 22H99.9017ZM106.929 22C106.709 22 106.529 21.93 106.389 21.79C106.249 21.65 106.179 21.47 106.179 21.25V1.75C106.179 1.53 106.249 1.35 106.389 1.21C106.529 1.07 106.709 0.999999 106.929 0.999999H120.309C120.529 0.999999 120.709 1.07 120.849 1.21C120.989 1.35 121.059 1.53 121.059 1.75V4.3C121.059 4.52 120.989 4.7 120.849 4.84C120.709 4.98 120.529 5.05 120.309 5.05H110.859V10.12H119.709C119.929 10.12 120.109 10.19 120.249 10.33C120.389 10.47 120.459 10.65 120.459 10.87V13.42C120.459 13.62 120.389 13.79 120.249 13.93C120.109 14.07 119.929 14.14 119.709 14.14H110.859V21.25C110.859 21.47 110.789 21.65 110.649 21.79C110.509 21.93 110.329 22 110.109 22H106.929ZM124.88 22C124.66 22 124.48 21.93 124.34 21.79C124.2 21.65 124.13 21.47 124.13 21.25V1.45C124.13 1.23 124.2 1.05 124.34 0.91C124.48 0.769999 124.66 0.699999 124.88 0.699999H127.88C128.08 0.699999 128.25 0.769999 128.39 0.91C128.53 1.05 128.6 1.23 128.6 1.45V21.25C128.6 21.47 128.53 21.65 128.39 21.79C128.25 21.93 128.08 22 127.88 22H124.88ZM139.532 22.3C137.872 22.3 136.482 22.03 135.362 21.49C134.242 20.93 133.382 20.14 132.782 19.12C132.202 18.1 131.882 16.91 131.822 15.55C131.802 15.15 131.792 14.7 131.792 14.2C131.792 13.68 131.802 13.23 131.822 12.85C131.882 11.47 132.222 10.28 132.842 9.28C133.462 8.26 134.332 7.48 135.452 6.94C136.572 6.38 137.932 6.1 139.532 6.1C141.112 6.1 142.462 6.38 143.582 6.94C144.702 7.48 145.572 8.26 146.192 9.28C146.812 10.28 147.152 11.47 147.212 12.85C147.252 13.23 147.272 13.68 147.272 14.2C147.272 14.7 147.252 15.15 147.212 15.55C147.152 16.91 146.822 18.1 146.222 19.12C145.642 20.14 144.792 20.93 143.672 21.49C142.552 22.03 141.172 22.3 139.532 22.3ZM139.532 19C140.512 19 141.252 18.7 141.752 18.1C142.252 17.48 142.522 16.58 142.562 15.4C142.582 15.1 142.592 14.7 142.592 14.2C142.592 13.7 142.582 13.3 142.562 13C142.522 11.84 142.252 10.95 141.752 10.33C141.252 9.71 140.512 9.4 139.532 9.4C138.552 9.4 137.802 9.71 137.282 10.33C136.782 10.95 136.512 11.84 136.472 13C136.452 13.3 136.442 13.7 136.442 14.2C136.442 14.7 136.452 15.1 136.472 15.4C136.512 16.58 136.782 17.48 137.282 18.1C137.802 18.7 138.552 19 139.532 19ZM154.26 22C153.98 22 153.76 21.93 153.6 21.79C153.46 21.65 153.35 21.47 153.27 21.25L148.98 7.36C148.94 7.26 148.92 7.16 148.92 7.06C148.92 6.88 148.98 6.73 149.1 6.61C149.24 6.47 149.4 6.4 149.58 6.4H152.22C152.48 6.4 152.68 6.47 152.82 6.61C152.96 6.75 153.05 6.88 153.09 7L155.82 16.27L158.73 7.06C158.77 6.92 158.86 6.78 159 6.64C159.16 6.48 159.38 6.4 159.66 6.4H161.37C161.65 6.4 161.86 6.48 162 6.64C162.16 6.78 162.26 6.92 162.3 7.06L165.21 16.27L167.94 7C167.96 6.88 168.04 6.75 168.18 6.61C168.34 6.47 168.54 6.4 168.78 6.4H171.42C171.6 6.4 171.75 6.47 171.87 6.61C172.01 6.73 172.08 6.88 172.08 7.06C172.08 7.16 172.07 7.26 172.05 7.36L167.73 21.25C167.67 21.47 167.56 21.65 167.4 21.79C167.26 21.93 167.05 22 166.77 22H164.46C164.18 22 163.96 21.93 163.8 21.79C163.64 21.65 163.52 21.47 163.44 21.25L160.53 12.37L157.56 21.25C157.5 21.47 157.39 21.65 157.23 21.79C157.07 21.93 156.85 22 156.57 22H154.26Z" fill="white"/>
</svg>
